<mxfile host="app.diagrams.net" modified="2024-03-28T13:03:51.461Z" agent="Mozilla/5.0 (Windows NT 10.0; Win64; x64; rv:124.0) Gecko/20100101 Firefox/124.0" etag="kXFDOMZjAdLBGiCVoUbu" version="24.2.0" type="device">
  <diagram name="Σελίδα-1" id="qzTc9z4uiJykLN7hX79U">
    <mxGraphModel dx="1450" dy="999" grid="0" gridSize="10" guides="1" tooltips="1" connect="1" arrows="1" fold="1" page="0" pageScale="1" pageWidth="827" pageHeight="1169" math="0" shadow="0">
      <root>
        <mxCell id="0" />
        <mxCell id="1" parent="0" />
        <mxCell id="DPusGmvPXFOhekrq0CR0-1" value="Τίτλος" style="rounded=0;whiteSpace=wrap;html=1;" parent="1" vertex="1">
          <mxGeometry x="-299" y="-35" width="197" height="24" as="geometry" />
        </mxCell>
        <mxCell id="DPusGmvPXFOhekrq0CR0-2" value="Έναρξη" style="rounded=0;whiteSpace=wrap;html=1;" parent="1" vertex="1">
          <mxGeometry x="-102" y="-35" width="77" height="24" as="geometry" />
        </mxCell>
        <mxCell id="DPusGmvPXFOhekrq0CR0-3" value="Λήξη" style="rounded=0;whiteSpace=wrap;html=1;" parent="1" vertex="1">
          <mxGeometry x="-25" y="-35" width="66" height="24" as="geometry" />
        </mxCell>
        <mxCell id="DPusGmvPXFOhekrq0CR0-4" value="Διάρκεια" style="rounded=0;whiteSpace=wrap;html=1;" parent="1" vertex="1">
          <mxGeometry x="41" y="-35" width="71" height="24" as="geometry" />
        </mxCell>
        <mxCell id="DPusGmvPXFOhekrq0CR0-5" value="&lt;div align=&quot;left&quot;&gt;Project Description v0.1&lt;/div&gt;" style="rounded=0;whiteSpace=wrap;html=1;align=left;" parent="1" vertex="1">
          <mxGeometry x="-299" y="10" width="197" height="21" as="geometry" />
        </mxCell>
        <mxCell id="DPusGmvPXFOhekrq0CR0-6" value="28/2/2024" style="rounded=0;whiteSpace=wrap;html=1;" parent="1" vertex="1">
          <mxGeometry x="-102" y="10" width="77" height="21" as="geometry" />
        </mxCell>
        <mxCell id="DPusGmvPXFOhekrq0CR0-7" value="3/3/2024" style="rounded=0;whiteSpace=wrap;html=1;" parent="1" vertex="1">
          <mxGeometry x="-25" y="10" width="66" height="21" as="geometry" />
        </mxCell>
        <mxCell id="DPusGmvPXFOhekrq0CR0-8" value="5" style="rounded=0;whiteSpace=wrap;html=1;" parent="1" vertex="1">
          <mxGeometry x="41" y="10" width="71" height="21" as="geometry" />
        </mxCell>
        <mxCell id="DPusGmvPXFOhekrq0CR0-9" value="&lt;div align=&quot;left&quot;&gt;Project Plan v0.1&lt;/div&gt;" style="rounded=0;whiteSpace=wrap;html=1;align=left;" parent="1" vertex="1">
          <mxGeometry x="-299" y="31" width="197" height="21" as="geometry" />
        </mxCell>
        <mxCell id="DPusGmvPXFOhekrq0CR0-10" value="4/3/2024" style="rounded=0;whiteSpace=wrap;html=1;" parent="1" vertex="1">
          <mxGeometry x="-102" y="31" width="77" height="21" as="geometry" />
        </mxCell>
        <mxCell id="DPusGmvPXFOhekrq0CR0-11" value="11/3/2024" style="rounded=0;whiteSpace=wrap;html=1;" parent="1" vertex="1">
          <mxGeometry x="-25" y="31" width="66" height="21" as="geometry" />
        </mxCell>
        <mxCell id="DPusGmvPXFOhekrq0CR0-12" value="8" style="rounded=0;whiteSpace=wrap;html=1;" parent="1" vertex="1">
          <mxGeometry x="41" y="31" width="71" height="21" as="geometry" />
        </mxCell>
        <mxCell id="DPusGmvPXFOhekrq0CR0-13" value="&lt;div align=&quot;left&quot;&gt;Team Plan v0.1&lt;/div&gt;" style="rounded=0;whiteSpace=wrap;html=1;align=left;" parent="1" vertex="1">
          <mxGeometry x="-299" y="52" width="197" height="21" as="geometry" />
        </mxCell>
        <mxCell id="DPusGmvPXFOhekrq0CR0-14" value="4/3/2024" style="rounded=0;whiteSpace=wrap;html=1;" parent="1" vertex="1">
          <mxGeometry x="-102" y="52" width="77" height="21" as="geometry" />
        </mxCell>
        <mxCell id="DPusGmvPXFOhekrq0CR0-15" value="13/3/2024" style="rounded=0;whiteSpace=wrap;html=1;" parent="1" vertex="1">
          <mxGeometry x="-25" y="52" width="66" height="21" as="geometry" />
        </mxCell>
        <mxCell id="DPusGmvPXFOhekrq0CR0-16" value="10" style="rounded=0;whiteSpace=wrap;html=1;" parent="1" vertex="1">
          <mxGeometry x="41" y="52" width="71" height="21" as="geometry" />
        </mxCell>
        <mxCell id="DPusGmvPXFOhekrq0CR0-17" value="&lt;div align=&quot;left&quot;&gt;Risk Assessment v0.1&lt;/div&gt;" style="rounded=0;whiteSpace=wrap;html=1;align=left;" parent="1" vertex="1">
          <mxGeometry x="-299" y="73" width="197" height="21" as="geometry" />
        </mxCell>
        <mxCell id="DPusGmvPXFOhekrq0CR0-18" value="4/3/2024" style="rounded=0;whiteSpace=wrap;html=1;" parent="1" vertex="1">
          <mxGeometry x="-102" y="73" width="77" height="21" as="geometry" />
        </mxCell>
        <mxCell id="DPusGmvPXFOhekrq0CR0-19" value="8/3/2024" style="rounded=0;whiteSpace=wrap;html=1;" parent="1" vertex="1">
          <mxGeometry x="-25" y="73" width="66" height="21" as="geometry" />
        </mxCell>
        <mxCell id="DPusGmvPXFOhekrq0CR0-20" value="5" style="rounded=0;whiteSpace=wrap;html=1;" parent="1" vertex="1">
          <mxGeometry x="41" y="73" width="71" height="21" as="geometry" />
        </mxCell>
        <mxCell id="DPusGmvPXFOhekrq0CR0-21" value="&lt;div align=&quot;left&quot;&gt;Use Cases v0.1&lt;/div&gt;" style="rounded=0;whiteSpace=wrap;html=1;align=left;" parent="1" vertex="1">
          <mxGeometry x="-299" y="94" width="197" height="21" as="geometry" />
        </mxCell>
        <mxCell id="DPusGmvPXFOhekrq0CR0-22" value="14/3/2024" style="rounded=0;whiteSpace=wrap;html=1;" parent="1" vertex="1">
          <mxGeometry x="-102" y="94" width="77" height="21" as="geometry" />
        </mxCell>
        <mxCell id="DPusGmvPXFOhekrq0CR0-23" value="30/3/2024" style="rounded=0;whiteSpace=wrap;html=1;" parent="1" vertex="1">
          <mxGeometry x="-25" y="94" width="66" height="21" as="geometry" />
        </mxCell>
        <mxCell id="DPusGmvPXFOhekrq0CR0-24" value="17" style="rounded=0;whiteSpace=wrap;html=1;" parent="1" vertex="1">
          <mxGeometry x="41" y="94" width="71" height="21" as="geometry" />
        </mxCell>
        <mxCell id="DPusGmvPXFOhekrq0CR0-25" value="&lt;div align=&quot;left&quot;&gt;Domain Model v0.1&lt;br&gt;&lt;/div&gt;" style="rounded=0;whiteSpace=wrap;html=1;align=left;" parent="1" vertex="1">
          <mxGeometry x="-299" y="115" width="197" height="21" as="geometry" />
        </mxCell>
        <mxCell id="DPusGmvPXFOhekrq0CR0-26" value="31/3/2024" style="rounded=0;whiteSpace=wrap;html=1;" parent="1" vertex="1">
          <mxGeometry x="-102" y="115" width="77" height="21" as="geometry" />
        </mxCell>
        <mxCell id="DPusGmvPXFOhekrq0CR0-27" value="6/4/2024" style="rounded=0;whiteSpace=wrap;html=1;" parent="1" vertex="1">
          <mxGeometry x="-25" y="115" width="66" height="21" as="geometry" />
        </mxCell>
        <mxCell id="DPusGmvPXFOhekrq0CR0-28" value="7" style="rounded=0;whiteSpace=wrap;html=1;" parent="1" vertex="1">
          <mxGeometry x="41" y="115" width="71" height="21" as="geometry" />
        </mxCell>
        <mxCell id="DPusGmvPXFOhekrq0CR0-29" value="&lt;div align=&quot;left&quot;&gt;1o Παραδοτέο&lt;/div&gt;" style="rounded=0;whiteSpace=wrap;html=1;align=left;" parent="1" vertex="1">
          <mxGeometry x="-299" y="136" width="197" height="21" as="geometry" />
        </mxCell>
        <mxCell id="DPusGmvPXFOhekrq0CR0-30" value="7/4/2024" style="rounded=0;whiteSpace=wrap;html=1;" parent="1" vertex="1">
          <mxGeometry x="-102" y="136" width="77" height="21" as="geometry" />
        </mxCell>
        <mxCell id="DPusGmvPXFOhekrq0CR0-31" value="7/4/2024" style="rounded=0;whiteSpace=wrap;html=1;" parent="1" vertex="1">
          <mxGeometry x="-25" y="136" width="66" height="21" as="geometry" />
        </mxCell>
        <mxCell id="DPusGmvPXFOhekrq0CR0-32" value="1" style="rounded=0;whiteSpace=wrap;html=1;" parent="1" vertex="1">
          <mxGeometry x="41" y="136" width="71" height="21" as="geometry" />
        </mxCell>
        <mxCell id="DPusGmvPXFOhekrq0CR0-33" value="" style="rounded=0;whiteSpace=wrap;html=1;" parent="1" vertex="1">
          <mxGeometry x="-299" y="157" width="197" height="21" as="geometry" />
        </mxCell>
        <mxCell id="DPusGmvPXFOhekrq0CR0-34" value="" style="rounded=0;whiteSpace=wrap;html=1;" parent="1" vertex="1">
          <mxGeometry x="-102" y="157" width="77" height="21" as="geometry" />
        </mxCell>
        <mxCell id="DPusGmvPXFOhekrq0CR0-35" value="" style="rounded=0;whiteSpace=wrap;html=1;" parent="1" vertex="1">
          <mxGeometry x="-25" y="157" width="66" height="21" as="geometry" />
        </mxCell>
        <mxCell id="DPusGmvPXFOhekrq0CR0-36" value="" style="rounded=0;whiteSpace=wrap;html=1;" parent="1" vertex="1">
          <mxGeometry x="41" y="157" width="71" height="21" as="geometry" />
        </mxCell>
        <mxCell id="DPusGmvPXFOhekrq0CR0-37" value="&lt;div align=&quot;left&quot;&gt;&lt;b&gt;2ο Παραδοτέο&lt;/b&gt;&lt;br&gt;&lt;/div&gt;" style="rounded=0;whiteSpace=wrap;html=1;align=left;" parent="1" vertex="1">
          <mxGeometry x="-299" y="178" width="197" height="21" as="geometry" />
        </mxCell>
        <mxCell id="DPusGmvPXFOhekrq0CR0-38" value="8/4/2024" style="rounded=0;whiteSpace=wrap;html=1;" parent="1" vertex="1">
          <mxGeometry x="-102" y="178" width="77" height="21" as="geometry" />
        </mxCell>
        <mxCell id="DPusGmvPXFOhekrq0CR0-39" value="28/4/2024" style="rounded=0;whiteSpace=wrap;html=1;" parent="1" vertex="1">
          <mxGeometry x="-25" y="178" width="66" height="21" as="geometry" />
        </mxCell>
        <mxCell id="DPusGmvPXFOhekrq0CR0-40" value="20" style="rounded=0;whiteSpace=wrap;html=1;" parent="1" vertex="1">
          <mxGeometry x="41" y="178" width="71" height="21" as="geometry" />
        </mxCell>
        <mxCell id="DPusGmvPXFOhekrq0CR0-41" value="&lt;div align=&quot;left&quot;&gt;Robustness Diagrams v0.1&lt;/div&gt;" style="rounded=0;whiteSpace=wrap;html=1;align=left;" parent="1" vertex="1">
          <mxGeometry x="-299" y="199" width="197" height="21" as="geometry" />
        </mxCell>
        <mxCell id="DPusGmvPXFOhekrq0CR0-42" value="8/4/2024" style="rounded=0;whiteSpace=wrap;html=1;" parent="1" vertex="1">
          <mxGeometry x="-102" y="199" width="77" height="21" as="geometry" />
        </mxCell>
        <mxCell id="DPusGmvPXFOhekrq0CR0-43" value="14/4/2024" style="rounded=0;whiteSpace=wrap;html=1;" parent="1" vertex="1">
          <mxGeometry x="-25" y="199" width="66" height="21" as="geometry" />
        </mxCell>
        <mxCell id="DPusGmvPXFOhekrq0CR0-44" value="7" style="rounded=0;whiteSpace=wrap;html=1;" parent="1" vertex="1">
          <mxGeometry x="41" y="199" width="71" height="21" as="geometry" />
        </mxCell>
        <mxCell id="DPusGmvPXFOhekrq0CR0-45" value="&lt;div align=&quot;left&quot;&gt;Sequence Diagrams v0.1&lt;/div&gt;" style="rounded=0;whiteSpace=wrap;html=1;align=left;" parent="1" vertex="1">
          <mxGeometry x="-299" y="220" width="197" height="21" as="geometry" />
        </mxCell>
        <mxCell id="DPusGmvPXFOhekrq0CR0-46" value="15/4/2024" style="rounded=0;whiteSpace=wrap;html=1;" parent="1" vertex="1">
          <mxGeometry x="-102" y="220" width="77" height="21" as="geometry" />
        </mxCell>
        <mxCell id="DPusGmvPXFOhekrq0CR0-47" value="21/4/2024" style="rounded=0;whiteSpace=wrap;html=1;" parent="1" vertex="1">
          <mxGeometry x="-25" y="220" width="66" height="21" as="geometry" />
        </mxCell>
        <mxCell id="DPusGmvPXFOhekrq0CR0-48" value="7" style="rounded=0;whiteSpace=wrap;html=1;" parent="1" vertex="1">
          <mxGeometry x="41" y="220" width="71" height="21" as="geometry" />
        </mxCell>
        <mxCell id="DPusGmvPXFOhekrq0CR0-49" value="&lt;div align=&quot;left&quot;&gt;Use Cases v0.2&lt;/div&gt;" style="rounded=0;whiteSpace=wrap;html=1;align=left;" parent="1" vertex="1">
          <mxGeometry x="-299" y="241" width="197" height="21" as="geometry" />
        </mxCell>
        <mxCell id="DPusGmvPXFOhekrq0CR0-50" value="22/4/2024" style="rounded=0;whiteSpace=wrap;html=1;" parent="1" vertex="1">
          <mxGeometry x="-102" y="241" width="77" height="21" as="geometry" />
        </mxCell>
        <mxCell id="DPusGmvPXFOhekrq0CR0-51" value="24/4/2024" style="rounded=0;whiteSpace=wrap;html=1;" parent="1" vertex="1">
          <mxGeometry x="-25" y="241" width="66" height="21" as="geometry" />
        </mxCell>
        <mxCell id="DPusGmvPXFOhekrq0CR0-52" value="3" style="rounded=0;whiteSpace=wrap;html=1;" parent="1" vertex="1">
          <mxGeometry x="41" y="241" width="71" height="21" as="geometry" />
        </mxCell>
        <mxCell id="DPusGmvPXFOhekrq0CR0-53" value="&lt;div align=&quot;left&quot;&gt;Domain Model v0.2&lt;/div&gt;" style="rounded=0;whiteSpace=wrap;html=1;align=left;" parent="1" vertex="1">
          <mxGeometry x="-299" y="262" width="197" height="21" as="geometry" />
        </mxCell>
        <mxCell id="DPusGmvPXFOhekrq0CR0-54" value="25/4/2024" style="rounded=0;whiteSpace=wrap;html=1;" parent="1" vertex="1">
          <mxGeometry x="-102" y="262" width="77" height="21" as="geometry" />
        </mxCell>
        <mxCell id="DPusGmvPXFOhekrq0CR0-55" value="27/4/2024" style="rounded=0;whiteSpace=wrap;html=1;" parent="1" vertex="1">
          <mxGeometry x="-25" y="262" width="66" height="21" as="geometry" />
        </mxCell>
        <mxCell id="DPusGmvPXFOhekrq0CR0-56" value="3" style="rounded=0;whiteSpace=wrap;html=1;" parent="1" vertex="1">
          <mxGeometry x="41" y="262" width="71" height="21" as="geometry" />
        </mxCell>
        <mxCell id="DPusGmvPXFOhekrq0CR0-57" value="&lt;div align=&quot;left&quot;&gt;2o Παραδοτέο&lt;/div&gt;" style="rounded=0;whiteSpace=wrap;html=1;align=left;" parent="1" vertex="1">
          <mxGeometry x="-299" y="283" width="197" height="21" as="geometry" />
        </mxCell>
        <mxCell id="DPusGmvPXFOhekrq0CR0-58" value="28/4/2024" style="rounded=0;whiteSpace=wrap;html=1;" parent="1" vertex="1">
          <mxGeometry x="-102" y="283" width="77" height="21" as="geometry" />
        </mxCell>
        <mxCell id="DPusGmvPXFOhekrq0CR0-59" value="28/4/42024" style="rounded=0;whiteSpace=wrap;html=1;" parent="1" vertex="1">
          <mxGeometry x="-25" y="283" width="66" height="21" as="geometry" />
        </mxCell>
        <mxCell id="DPusGmvPXFOhekrq0CR0-60" value="1" style="rounded=0;whiteSpace=wrap;html=1;" parent="1" vertex="1">
          <mxGeometry x="41" y="283" width="71" height="21" as="geometry" />
        </mxCell>
        <mxCell id="DPusGmvPXFOhekrq0CR0-61" value="" style="rounded=0;whiteSpace=wrap;html=1;" parent="1" vertex="1">
          <mxGeometry x="112" y="10" width="936" height="21" as="geometry" />
        </mxCell>
        <mxCell id="DPusGmvPXFOhekrq0CR0-62" value="" style="rounded=0;whiteSpace=wrap;html=1;" parent="1" vertex="1">
          <mxGeometry x="112" y="31" width="936" height="21" as="geometry" />
        </mxCell>
        <mxCell id="DPusGmvPXFOhekrq0CR0-63" value="" style="rounded=0;whiteSpace=wrap;html=1;" parent="1" vertex="1">
          <mxGeometry x="112" y="52" width="936" height="21" as="geometry" />
        </mxCell>
        <mxCell id="DPusGmvPXFOhekrq0CR0-64" value="" style="rounded=0;whiteSpace=wrap;html=1;" parent="1" vertex="1">
          <mxGeometry x="112" y="73" width="936" height="21" as="geometry" />
        </mxCell>
        <mxCell id="DPusGmvPXFOhekrq0CR0-65" value="" style="rounded=0;whiteSpace=wrap;html=1;" parent="1" vertex="1">
          <mxGeometry x="112" y="94" width="936" height="21" as="geometry" />
        </mxCell>
        <mxCell id="DPusGmvPXFOhekrq0CR0-66" value="" style="rounded=0;whiteSpace=wrap;html=1;" parent="1" vertex="1">
          <mxGeometry x="112" y="115" width="936" height="21" as="geometry" />
        </mxCell>
        <mxCell id="DPusGmvPXFOhekrq0CR0-67" value="" style="rounded=0;whiteSpace=wrap;html=1;" parent="1" vertex="1">
          <mxGeometry x="112" y="136" width="936" height="21" as="geometry" />
        </mxCell>
        <mxCell id="DPusGmvPXFOhekrq0CR0-68" value="" style="rounded=0;whiteSpace=wrap;html=1;" parent="1" vertex="1">
          <mxGeometry x="112" y="157" width="936" height="21" as="geometry" />
        </mxCell>
        <mxCell id="DPusGmvPXFOhekrq0CR0-69" value="" style="rounded=0;whiteSpace=wrap;html=1;" parent="1" vertex="1">
          <mxGeometry x="112" y="178" width="936" height="21" as="geometry" />
        </mxCell>
        <mxCell id="DPusGmvPXFOhekrq0CR0-70" value="" style="rounded=0;whiteSpace=wrap;html=1;" parent="1" vertex="1">
          <mxGeometry x="112" y="199" width="936" height="21" as="geometry" />
        </mxCell>
        <mxCell id="DPusGmvPXFOhekrq0CR0-71" value="" style="rounded=0;whiteSpace=wrap;html=1;" parent="1" vertex="1">
          <mxGeometry x="112" y="220" width="936" height="21" as="geometry" />
        </mxCell>
        <mxCell id="DPusGmvPXFOhekrq0CR0-72" value="" style="rounded=0;whiteSpace=wrap;html=1;" parent="1" vertex="1">
          <mxGeometry x="112" y="241" width="936" height="21" as="geometry" />
        </mxCell>
        <mxCell id="DPusGmvPXFOhekrq0CR0-73" value="" style="rounded=0;whiteSpace=wrap;html=1;" parent="1" vertex="1">
          <mxGeometry x="112" y="262" width="936" height="21" as="geometry" />
        </mxCell>
        <mxCell id="DPusGmvPXFOhekrq0CR0-74" value="" style="rounded=0;whiteSpace=wrap;html=1;" parent="1" vertex="1">
          <mxGeometry x="112" y="283" width="936" height="21" as="geometry" />
        </mxCell>
        <mxCell id="DPusGmvPXFOhekrq0CR0-75" value="" style="rounded=0;whiteSpace=wrap;html=1;" parent="1" vertex="1">
          <mxGeometry x="-299" y="304" width="197" height="21" as="geometry" />
        </mxCell>
        <mxCell id="DPusGmvPXFOhekrq0CR0-76" value="" style="rounded=0;whiteSpace=wrap;html=1;" parent="1" vertex="1">
          <mxGeometry x="-102" y="304" width="77" height="21" as="geometry" />
        </mxCell>
        <mxCell id="DPusGmvPXFOhekrq0CR0-77" value="" style="rounded=0;whiteSpace=wrap;html=1;" parent="1" vertex="1">
          <mxGeometry x="-25" y="304" width="66" height="21" as="geometry" />
        </mxCell>
        <mxCell id="DPusGmvPXFOhekrq0CR0-78" value="" style="rounded=0;whiteSpace=wrap;html=1;" parent="1" vertex="1">
          <mxGeometry x="41" y="304" width="71" height="21" as="geometry" />
        </mxCell>
        <mxCell id="DPusGmvPXFOhekrq0CR0-79" value="" style="rounded=0;whiteSpace=wrap;html=1;" parent="1" vertex="1">
          <mxGeometry x="112" y="304" width="936" height="21" as="geometry" />
        </mxCell>
        <mxCell id="DPusGmvPXFOhekrq0CR0-80" value="&lt;div align=&quot;left&quot;&gt;&lt;b&gt;3ο Παραδοτέο&lt;/b&gt;&lt;/div&gt;" style="rounded=0;whiteSpace=wrap;html=1;align=left;" parent="1" vertex="1">
          <mxGeometry x="-299" y="325" width="197" height="21" as="geometry" />
        </mxCell>
        <mxCell id="DPusGmvPXFOhekrq0CR0-81" value="29/4/2024" style="rounded=0;whiteSpace=wrap;html=1;" parent="1" vertex="1">
          <mxGeometry x="-102" y="325" width="77" height="21" as="geometry" />
        </mxCell>
        <mxCell id="DPusGmvPXFOhekrq0CR0-82" value="26/5/2024" style="rounded=0;whiteSpace=wrap;html=1;" parent="1" vertex="1">
          <mxGeometry x="-25" y="325" width="66" height="21" as="geometry" />
        </mxCell>
        <mxCell id="DPusGmvPXFOhekrq0CR0-83" value="28" style="rounded=0;whiteSpace=wrap;html=1;" parent="1" vertex="1">
          <mxGeometry x="41" y="325" width="71" height="21" as="geometry" />
        </mxCell>
        <mxCell id="DPusGmvPXFOhekrq0CR0-84" value="" style="rounded=0;whiteSpace=wrap;html=1;" parent="1" vertex="1">
          <mxGeometry x="112" y="325" width="936" height="21" as="geometry" />
        </mxCell>
        <mxCell id="DPusGmvPXFOhekrq0CR0-85" value="&lt;div align=&quot;left&quot;&gt;Class Diagram v0.1&lt;/div&gt;" style="rounded=0;whiteSpace=wrap;html=1;align=left;" parent="1" vertex="1">
          <mxGeometry x="-299" y="346" width="197" height="21" as="geometry" />
        </mxCell>
        <mxCell id="DPusGmvPXFOhekrq0CR0-86" value="29/4/2024" style="rounded=0;whiteSpace=wrap;html=1;" parent="1" vertex="1">
          <mxGeometry x="-102" y="346" width="77" height="21" as="geometry" />
        </mxCell>
        <mxCell id="DPusGmvPXFOhekrq0CR0-87" value="5/5/2024" style="rounded=0;whiteSpace=wrap;html=1;" parent="1" vertex="1">
          <mxGeometry x="-25" y="346" width="66" height="21" as="geometry" />
        </mxCell>
        <mxCell id="DPusGmvPXFOhekrq0CR0-88" value="7" style="rounded=0;whiteSpace=wrap;html=1;" parent="1" vertex="1">
          <mxGeometry x="41" y="346" width="71" height="21" as="geometry" />
        </mxCell>
        <mxCell id="DPusGmvPXFOhekrq0CR0-89" value="" style="rounded=0;whiteSpace=wrap;html=1;" parent="1" vertex="1">
          <mxGeometry x="112" y="346" width="936" height="21" as="geometry" />
        </mxCell>
        <mxCell id="DPusGmvPXFOhekrq0CR0-90" value="&lt;div align=&quot;left&quot;&gt;Project Code v0.1&lt;/div&gt;" style="rounded=0;whiteSpace=wrap;html=1;align=left;" parent="1" vertex="1">
          <mxGeometry x="-299" y="367" width="197" height="21" as="geometry" />
        </mxCell>
        <mxCell id="DPusGmvPXFOhekrq0CR0-91" value="6/5/2024" style="rounded=0;whiteSpace=wrap;html=1;" parent="1" vertex="1">
          <mxGeometry x="-102" y="367" width="77" height="21" as="geometry" />
        </mxCell>
        <mxCell id="DPusGmvPXFOhekrq0CR0-92" value="19/5/2024" style="rounded=0;whiteSpace=wrap;html=1;" parent="1" vertex="1">
          <mxGeometry x="-25" y="367" width="66" height="21" as="geometry" />
        </mxCell>
        <mxCell id="DPusGmvPXFOhekrq0CR0-93" value="14" style="rounded=0;whiteSpace=wrap;html=1;" parent="1" vertex="1">
          <mxGeometry x="41" y="367" width="71" height="21" as="geometry" />
        </mxCell>
        <mxCell id="DPusGmvPXFOhekrq0CR0-94" value="" style="rounded=0;whiteSpace=wrap;html=1;" parent="1" vertex="1">
          <mxGeometry x="112" y="367" width="936" height="21" as="geometry" />
        </mxCell>
        <mxCell id="DPusGmvPXFOhekrq0CR0-95" value="&lt;div align=&quot;left&quot;&gt;Test Cases v0.1&lt;/div&gt;" style="rounded=0;whiteSpace=wrap;html=1;align=left;" parent="1" vertex="1">
          <mxGeometry x="-299" y="388" width="197" height="21" as="geometry" />
        </mxCell>
        <mxCell id="DPusGmvPXFOhekrq0CR0-96" value="20/5/2024" style="rounded=0;whiteSpace=wrap;html=1;" parent="1" vertex="1">
          <mxGeometry x="-102" y="388" width="77" height="21" as="geometry" />
        </mxCell>
        <mxCell id="DPusGmvPXFOhekrq0CR0-97" value="25/5/2024" style="rounded=0;whiteSpace=wrap;html=1;" parent="1" vertex="1">
          <mxGeometry x="-25" y="388" width="66" height="21" as="geometry" />
        </mxCell>
        <mxCell id="DPusGmvPXFOhekrq0CR0-98" value="6" style="rounded=0;whiteSpace=wrap;html=1;" parent="1" vertex="1">
          <mxGeometry x="41" y="388" width="71" height="21" as="geometry" />
        </mxCell>
        <mxCell id="DPusGmvPXFOhekrq0CR0-99" value="" style="rounded=0;whiteSpace=wrap;html=1;" parent="1" vertex="1">
          <mxGeometry x="112" y="388" width="936" height="21" as="geometry" />
        </mxCell>
        <mxCell id="DPusGmvPXFOhekrq0CR0-120" value="&lt;div align=&quot;left&quot;&gt;&lt;b&gt;1o Παραδοτέο&lt;/b&gt;&lt;/div&gt;" style="rounded=0;whiteSpace=wrap;html=1;align=left;" parent="1" vertex="1">
          <mxGeometry x="-299" y="-11" width="197" height="21" as="geometry" />
        </mxCell>
        <mxCell id="DPusGmvPXFOhekrq0CR0-121" value="28/2/2024" style="rounded=0;whiteSpace=wrap;html=1;" parent="1" vertex="1">
          <mxGeometry x="-102" y="-11" width="77" height="21" as="geometry" />
        </mxCell>
        <mxCell id="DPusGmvPXFOhekrq0CR0-122" value="7/4/2024" style="rounded=0;whiteSpace=wrap;html=1;" parent="1" vertex="1">
          <mxGeometry x="-25" y="-11" width="66" height="21" as="geometry" />
        </mxCell>
        <mxCell id="DPusGmvPXFOhekrq0CR0-123" value="40" style="rounded=0;whiteSpace=wrap;html=1;" parent="1" vertex="1">
          <mxGeometry x="41" y="-11" width="71" height="21" as="geometry" />
        </mxCell>
        <mxCell id="DPusGmvPXFOhekrq0CR0-124" value="" style="rounded=0;whiteSpace=wrap;html=1;" parent="1" vertex="1">
          <mxGeometry x="112" y="-11" width="936" height="21" as="geometry" />
        </mxCell>
        <mxCell id="DPusGmvPXFOhekrq0CR0-130" value="&lt;div align=&quot;left&quot;&gt;3o Παραδοτέο&lt;/div&gt;" style="rounded=0;whiteSpace=wrap;html=1;align=left;" parent="1" vertex="1">
          <mxGeometry x="-299" y="409" width="197" height="21" as="geometry" />
        </mxCell>
        <mxCell id="DPusGmvPXFOhekrq0CR0-131" value="26/5/2024" style="rounded=0;whiteSpace=wrap;html=1;" parent="1" vertex="1">
          <mxGeometry x="-102" y="409" width="77" height="21" as="geometry" />
        </mxCell>
        <mxCell id="DPusGmvPXFOhekrq0CR0-132" value="26/5/2024" style="rounded=0;whiteSpace=wrap;html=1;" parent="1" vertex="1">
          <mxGeometry x="-25" y="409" width="66" height="21" as="geometry" />
        </mxCell>
        <mxCell id="DPusGmvPXFOhekrq0CR0-133" value="1" style="rounded=0;whiteSpace=wrap;html=1;" parent="1" vertex="1">
          <mxGeometry x="41" y="409" width="71" height="21" as="geometry" />
        </mxCell>
        <mxCell id="DPusGmvPXFOhekrq0CR0-134" value="" style="rounded=0;whiteSpace=wrap;html=1;" parent="1" vertex="1">
          <mxGeometry x="112" y="409" width="936" height="21" as="geometry" />
        </mxCell>
        <mxCell id="DPusGmvPXFOhekrq0CR0-140" value="" style="rounded=0;whiteSpace=wrap;html=1;" parent="1" vertex="1">
          <mxGeometry x="-299" y="430" width="197" height="21" as="geometry" />
        </mxCell>
        <mxCell id="DPusGmvPXFOhekrq0CR0-141" value="" style="rounded=0;whiteSpace=wrap;html=1;" parent="1" vertex="1">
          <mxGeometry x="-102" y="430" width="77" height="21" as="geometry" />
        </mxCell>
        <mxCell id="DPusGmvPXFOhekrq0CR0-142" value="" style="rounded=0;whiteSpace=wrap;html=1;" parent="1" vertex="1">
          <mxGeometry x="-25" y="430" width="66" height="21" as="geometry" />
        </mxCell>
        <mxCell id="DPusGmvPXFOhekrq0CR0-143" value="" style="rounded=0;whiteSpace=wrap;html=1;" parent="1" vertex="1">
          <mxGeometry x="41" y="430" width="71" height="21" as="geometry" />
        </mxCell>
        <mxCell id="DPusGmvPXFOhekrq0CR0-144" value="" style="rounded=0;whiteSpace=wrap;html=1;" parent="1" vertex="1">
          <mxGeometry x="112" y="430" width="936" height="21" as="geometry" />
        </mxCell>
        <mxCell id="DPusGmvPXFOhekrq0CR0-145" value="&lt;div align=&quot;left&quot;&gt;&lt;b&gt;4ο Παραδοτέο&lt;/b&gt;&lt;br&gt;&lt;/div&gt;" style="rounded=0;whiteSpace=wrap;html=1;align=left;" parent="1" vertex="1">
          <mxGeometry x="-299" y="451" width="197" height="21" as="geometry" />
        </mxCell>
        <mxCell id="DPusGmvPXFOhekrq0CR0-146" value="27/5/2024" style="rounded=0;whiteSpace=wrap;html=1;" parent="1" vertex="1">
          <mxGeometry x="-102" y="451" width="77" height="21" as="geometry" />
        </mxCell>
        <mxCell id="DPusGmvPXFOhekrq0CR0-147" value="2/6/2024" style="rounded=0;whiteSpace=wrap;html=1;" parent="1" vertex="1">
          <mxGeometry x="-25" y="451" width="66" height="21" as="geometry" />
        </mxCell>
        <mxCell id="DPusGmvPXFOhekrq0CR0-148" value="7" style="rounded=0;whiteSpace=wrap;html=1;" parent="1" vertex="1">
          <mxGeometry x="41" y="451" width="71" height="21" as="geometry" />
        </mxCell>
        <mxCell id="DPusGmvPXFOhekrq0CR0-149" value="" style="rounded=0;whiteSpace=wrap;html=1;" parent="1" vertex="1">
          <mxGeometry x="112" y="451" width="936" height="21" as="geometry" />
        </mxCell>
        <mxCell id="DPusGmvPXFOhekrq0CR0-150" value="&lt;div align=&quot;left&quot;&gt;Project Description v1.0&lt;/div&gt;" style="rounded=0;whiteSpace=wrap;html=1;align=left;" parent="1" vertex="1">
          <mxGeometry x="-299" y="472" width="197" height="21" as="geometry" />
        </mxCell>
        <mxCell id="DPusGmvPXFOhekrq0CR0-151" value="27/5/2024" style="rounded=0;whiteSpace=wrap;html=1;" parent="1" vertex="1">
          <mxGeometry x="-102" y="472" width="77" height="21" as="geometry" />
        </mxCell>
        <mxCell id="DPusGmvPXFOhekrq0CR0-152" value="27/5/2024" style="rounded=0;whiteSpace=wrap;html=1;" parent="1" vertex="1">
          <mxGeometry x="-25" y="472" width="66" height="21" as="geometry" />
        </mxCell>
        <mxCell id="DPusGmvPXFOhekrq0CR0-153" value="1" style="rounded=0;whiteSpace=wrap;html=1;" parent="1" vertex="1">
          <mxGeometry x="41" y="472" width="71" height="21" as="geometry" />
        </mxCell>
        <mxCell id="DPusGmvPXFOhekrq0CR0-154" value="" style="rounded=0;whiteSpace=wrap;html=1;" parent="1" vertex="1">
          <mxGeometry x="112" y="472" width="936" height="21" as="geometry" />
        </mxCell>
        <mxCell id="DPusGmvPXFOhekrq0CR0-160" value="&lt;div align=&quot;left&quot;&gt;Project Plan v1.0&lt;/div&gt;" style="rounded=0;whiteSpace=wrap;html=1;align=left;" parent="1" vertex="1">
          <mxGeometry x="-299" y="493" width="197" height="21" as="geometry" />
        </mxCell>
        <mxCell id="DPusGmvPXFOhekrq0CR0-161" value="28/5/2024" style="rounded=0;whiteSpace=wrap;html=1;" parent="1" vertex="1">
          <mxGeometry x="-102" y="493" width="77" height="21" as="geometry" />
        </mxCell>
        <mxCell id="DPusGmvPXFOhekrq0CR0-162" value="28/5/2024" style="rounded=0;whiteSpace=wrap;html=1;" parent="1" vertex="1">
          <mxGeometry x="-25" y="493" width="66" height="21" as="geometry" />
        </mxCell>
        <mxCell id="DPusGmvPXFOhekrq0CR0-163" value="1" style="rounded=0;whiteSpace=wrap;html=1;" parent="1" vertex="1">
          <mxGeometry x="41" y="493" width="71" height="21" as="geometry" />
        </mxCell>
        <mxCell id="DPusGmvPXFOhekrq0CR0-164" value="" style="rounded=0;whiteSpace=wrap;html=1;" parent="1" vertex="1">
          <mxGeometry x="112" y="493" width="936" height="21" as="geometry" />
        </mxCell>
        <mxCell id="DPusGmvPXFOhekrq0CR0-170" value="&lt;div align=&quot;left&quot;&gt;Team Plan v1.0&lt;/div&gt;" style="rounded=0;whiteSpace=wrap;html=1;align=left;" parent="1" vertex="1">
          <mxGeometry x="-299" y="514" width="197" height="21" as="geometry" />
        </mxCell>
        <mxCell id="DPusGmvPXFOhekrq0CR0-171" value="28/5/2024" style="rounded=0;whiteSpace=wrap;html=1;" parent="1" vertex="1">
          <mxGeometry x="-102" y="514" width="77" height="21" as="geometry" />
        </mxCell>
        <mxCell id="DPusGmvPXFOhekrq0CR0-172" value="28/5/2024" style="rounded=0;whiteSpace=wrap;html=1;" parent="1" vertex="1">
          <mxGeometry x="-25" y="514" width="66" height="21" as="geometry" />
        </mxCell>
        <mxCell id="DPusGmvPXFOhekrq0CR0-173" value="1" style="rounded=0;whiteSpace=wrap;html=1;" parent="1" vertex="1">
          <mxGeometry x="41" y="514" width="71" height="21" as="geometry" />
        </mxCell>
        <mxCell id="DPusGmvPXFOhekrq0CR0-174" value="" style="rounded=0;whiteSpace=wrap;html=1;" parent="1" vertex="1">
          <mxGeometry x="112" y="514" width="936" height="21" as="geometry" />
        </mxCell>
        <mxCell id="DPusGmvPXFOhekrq0CR0-180" value="&lt;div align=&quot;left&quot;&gt;Risk Assessment v1.0&lt;/div&gt;" style="rounded=0;whiteSpace=wrap;html=1;align=left;" parent="1" vertex="1">
          <mxGeometry x="-299" y="535" width="197" height="21" as="geometry" />
        </mxCell>
        <mxCell id="DPusGmvPXFOhekrq0CR0-181" value="28/5/2024" style="rounded=0;whiteSpace=wrap;html=1;" parent="1" vertex="1">
          <mxGeometry x="-102" y="535" width="77" height="21" as="geometry" />
        </mxCell>
        <mxCell id="DPusGmvPXFOhekrq0CR0-182" value="28/5/2024" style="rounded=0;whiteSpace=wrap;html=1;" parent="1" vertex="1">
          <mxGeometry x="-25" y="535" width="66" height="21" as="geometry" />
        </mxCell>
        <mxCell id="DPusGmvPXFOhekrq0CR0-183" value="1" style="rounded=0;whiteSpace=wrap;html=1;" parent="1" vertex="1">
          <mxGeometry x="41" y="535" width="71" height="21" as="geometry" />
        </mxCell>
        <mxCell id="DPusGmvPXFOhekrq0CR0-184" value="" style="rounded=0;whiteSpace=wrap;html=1;" parent="1" vertex="1">
          <mxGeometry x="112" y="535" width="936" height="21" as="geometry" />
        </mxCell>
        <mxCell id="DPusGmvPXFOhekrq0CR0-186" value="&lt;div align=&quot;left&quot;&gt;Use Cases v1.0&lt;/div&gt;" style="rounded=0;whiteSpace=wrap;html=1;align=left;" parent="1" vertex="1">
          <mxGeometry x="-299" y="556" width="197" height="21" as="geometry" />
        </mxCell>
        <mxCell id="DPusGmvPXFOhekrq0CR0-187" value="29/5/2024" style="rounded=0;whiteSpace=wrap;html=1;" parent="1" vertex="1">
          <mxGeometry x="-102" y="556" width="77" height="21" as="geometry" />
        </mxCell>
        <mxCell id="DPusGmvPXFOhekrq0CR0-188" value="29/5/2024" style="rounded=0;whiteSpace=wrap;html=1;" parent="1" vertex="1">
          <mxGeometry x="-25" y="556" width="66" height="21" as="geometry" />
        </mxCell>
        <mxCell id="DPusGmvPXFOhekrq0CR0-189" value="1" style="rounded=0;whiteSpace=wrap;html=1;" parent="1" vertex="1">
          <mxGeometry x="41" y="556" width="71" height="21" as="geometry" />
        </mxCell>
        <mxCell id="DPusGmvPXFOhekrq0CR0-190" value="" style="rounded=0;whiteSpace=wrap;html=1;" parent="1" vertex="1">
          <mxGeometry x="112" y="556" width="936" height="21" as="geometry" />
        </mxCell>
        <mxCell id="DPusGmvPXFOhekrq0CR0-196" value="&lt;div align=&quot;left&quot;&gt;Robustness Diagrams v1.0&lt;/div&gt;" style="rounded=0;whiteSpace=wrap;html=1;align=left;" parent="1" vertex="1">
          <mxGeometry x="-299" y="577" width="197" height="21" as="geometry" />
        </mxCell>
        <mxCell id="DPusGmvPXFOhekrq0CR0-197" value="30/5/2024" style="rounded=0;whiteSpace=wrap;html=1;" parent="1" vertex="1">
          <mxGeometry x="-102" y="577" width="77" height="21" as="geometry" />
        </mxCell>
        <mxCell id="DPusGmvPXFOhekrq0CR0-198" value="30/5/2024" style="rounded=0;whiteSpace=wrap;html=1;" parent="1" vertex="1">
          <mxGeometry x="-25" y="577" width="66" height="21" as="geometry" />
        </mxCell>
        <mxCell id="DPusGmvPXFOhekrq0CR0-199" value="1" style="rounded=0;whiteSpace=wrap;html=1;" parent="1" vertex="1">
          <mxGeometry x="41" y="577" width="71" height="21" as="geometry" />
        </mxCell>
        <mxCell id="DPusGmvPXFOhekrq0CR0-200" value="" style="rounded=0;whiteSpace=wrap;html=1;" parent="1" vertex="1">
          <mxGeometry x="112" y="577" width="936" height="21" as="geometry" />
        </mxCell>
        <mxCell id="DPusGmvPXFOhekrq0CR0-201" value="&lt;div align=&quot;left&quot;&gt;Sequence Diagrams v1.0&lt;/div&gt;" style="rounded=0;whiteSpace=wrap;html=1;align=left;" parent="1" vertex="1">
          <mxGeometry x="-299" y="598" width="197" height="21" as="geometry" />
        </mxCell>
        <mxCell id="DPusGmvPXFOhekrq0CR0-202" value="31/5/2024" style="rounded=0;whiteSpace=wrap;html=1;" parent="1" vertex="1">
          <mxGeometry x="-102" y="598" width="77" height="21" as="geometry" />
        </mxCell>
        <mxCell id="DPusGmvPXFOhekrq0CR0-203" value="31/5/2024" style="rounded=0;whiteSpace=wrap;html=1;" parent="1" vertex="1">
          <mxGeometry x="-25" y="598" width="66" height="21" as="geometry" />
        </mxCell>
        <mxCell id="DPusGmvPXFOhekrq0CR0-204" value="1" style="rounded=0;whiteSpace=wrap;html=1;" parent="1" vertex="1">
          <mxGeometry x="41" y="598" width="71" height="21" as="geometry" />
        </mxCell>
        <mxCell id="DPusGmvPXFOhekrq0CR0-205" value="" style="rounded=0;whiteSpace=wrap;html=1;" parent="1" vertex="1">
          <mxGeometry x="112" y="598" width="936" height="21" as="geometry" />
        </mxCell>
        <mxCell id="DPusGmvPXFOhekrq0CR0-206" value="&lt;div align=&quot;left&quot;&gt;Domain Model v1.0&lt;/div&gt;" style="rounded=0;whiteSpace=wrap;html=1;align=left;" parent="1" vertex="1">
          <mxGeometry x="-299" y="619" width="197" height="21" as="geometry" />
        </mxCell>
        <mxCell id="DPusGmvPXFOhekrq0CR0-207" value="1/6/2024" style="rounded=0;whiteSpace=wrap;html=1;" parent="1" vertex="1">
          <mxGeometry x="-102" y="619" width="77" height="21" as="geometry" />
        </mxCell>
        <mxCell id="DPusGmvPXFOhekrq0CR0-208" value="1/6/2024" style="rounded=0;whiteSpace=wrap;html=1;" parent="1" vertex="1">
          <mxGeometry x="-25" y="619" width="66" height="21" as="geometry" />
        </mxCell>
        <mxCell id="DPusGmvPXFOhekrq0CR0-209" value="1" style="rounded=0;whiteSpace=wrap;html=1;" parent="1" vertex="1">
          <mxGeometry x="41" y="619" width="71" height="21" as="geometry" />
        </mxCell>
        <mxCell id="DPusGmvPXFOhekrq0CR0-210" value="" style="rounded=0;whiteSpace=wrap;html=1;" parent="1" vertex="1">
          <mxGeometry x="112" y="619" width="936" height="21" as="geometry" />
        </mxCell>
        <mxCell id="DPusGmvPXFOhekrq0CR0-211" value="&lt;div align=&quot;left&quot;&gt;Class Diagram v1.0&lt;/div&gt;" style="rounded=0;whiteSpace=wrap;html=1;align=left;" parent="1" vertex="1">
          <mxGeometry x="-299" y="640" width="197" height="21" as="geometry" />
        </mxCell>
        <mxCell id="DPusGmvPXFOhekrq0CR0-212" value="1/6/2024" style="rounded=0;whiteSpace=wrap;html=1;" parent="1" vertex="1">
          <mxGeometry x="-102" y="640" width="77" height="21" as="geometry" />
        </mxCell>
        <mxCell id="DPusGmvPXFOhekrq0CR0-213" value="1/6/2024" style="rounded=0;whiteSpace=wrap;html=1;" parent="1" vertex="1">
          <mxGeometry x="-25" y="640" width="66" height="21" as="geometry" />
        </mxCell>
        <mxCell id="DPusGmvPXFOhekrq0CR0-214" value="1" style="rounded=0;whiteSpace=wrap;html=1;" parent="1" vertex="1">
          <mxGeometry x="41" y="640" width="71" height="21" as="geometry" />
        </mxCell>
        <mxCell id="DPusGmvPXFOhekrq0CR0-215" value="" style="rounded=0;whiteSpace=wrap;html=1;" parent="1" vertex="1">
          <mxGeometry x="112" y="640" width="936" height="21" as="geometry" />
        </mxCell>
        <mxCell id="DPusGmvPXFOhekrq0CR0-216" value="&lt;div align=&quot;left&quot;&gt;Project Code v1.0&lt;/div&gt;" style="rounded=0;whiteSpace=wrap;html=1;align=left;" parent="1" vertex="1">
          <mxGeometry x="-299" y="661" width="197" height="21" as="geometry" />
        </mxCell>
        <mxCell id="DPusGmvPXFOhekrq0CR0-217" value="2/6/2024" style="rounded=0;whiteSpace=wrap;html=1;" parent="1" vertex="1">
          <mxGeometry x="-102" y="661" width="77" height="21" as="geometry" />
        </mxCell>
        <mxCell id="DPusGmvPXFOhekrq0CR0-218" value="2/6/2024" style="rounded=0;whiteSpace=wrap;html=1;" parent="1" vertex="1">
          <mxGeometry x="-25" y="661" width="66" height="21" as="geometry" />
        </mxCell>
        <mxCell id="DPusGmvPXFOhekrq0CR0-219" value="1" style="rounded=0;whiteSpace=wrap;html=1;" parent="1" vertex="1">
          <mxGeometry x="41" y="661" width="71" height="21" as="geometry" />
        </mxCell>
        <mxCell id="DPusGmvPXFOhekrq0CR0-220" value="" style="rounded=0;whiteSpace=wrap;html=1;" parent="1" vertex="1">
          <mxGeometry x="112" y="661" width="936" height="21" as="geometry" />
        </mxCell>
        <mxCell id="DPusGmvPXFOhekrq0CR0-226" value="&lt;div align=&quot;left&quot;&gt;Test Cases v1.0&lt;/div&gt;" style="rounded=0;whiteSpace=wrap;html=1;align=left;" parent="1" vertex="1">
          <mxGeometry x="-299" y="682" width="197" height="21" as="geometry" />
        </mxCell>
        <mxCell id="DPusGmvPXFOhekrq0CR0-227" value="2/6/2024" style="rounded=0;whiteSpace=wrap;html=1;" parent="1" vertex="1">
          <mxGeometry x="-102" y="682" width="77" height="21" as="geometry" />
        </mxCell>
        <mxCell id="DPusGmvPXFOhekrq0CR0-228" value="2/6/2024" style="rounded=0;whiteSpace=wrap;html=1;" parent="1" vertex="1">
          <mxGeometry x="-25" y="682" width="66" height="21" as="geometry" />
        </mxCell>
        <mxCell id="DPusGmvPXFOhekrq0CR0-229" value="1" style="rounded=0;whiteSpace=wrap;html=1;" parent="1" vertex="1">
          <mxGeometry x="41" y="682" width="71" height="21" as="geometry" />
        </mxCell>
        <mxCell id="DPusGmvPXFOhekrq0CR0-230" value="" style="rounded=0;whiteSpace=wrap;html=1;" parent="1" vertex="1">
          <mxGeometry x="112" y="682" width="936" height="21" as="geometry" />
        </mxCell>
        <mxCell id="DPusGmvPXFOhekrq0CR0-231" value="&lt;div align=&quot;left&quot;&gt;4o Παραδοτέο&lt;/div&gt;" style="rounded=0;whiteSpace=wrap;html=1;align=left;" parent="1" vertex="1">
          <mxGeometry x="-299" y="703" width="197" height="21" as="geometry" />
        </mxCell>
        <mxCell id="DPusGmvPXFOhekrq0CR0-232" value="" style="rounded=0;whiteSpace=wrap;html=1;" parent="1" vertex="1">
          <mxGeometry x="-102" y="703" width="77" height="21" as="geometry" />
        </mxCell>
        <mxCell id="DPusGmvPXFOhekrq0CR0-233" value="" style="rounded=0;whiteSpace=wrap;html=1;" parent="1" vertex="1">
          <mxGeometry x="-25" y="703" width="66" height="21" as="geometry" />
        </mxCell>
        <mxCell id="DPusGmvPXFOhekrq0CR0-234" value="" style="rounded=0;whiteSpace=wrap;html=1;" parent="1" vertex="1">
          <mxGeometry x="41" y="703" width="71" height="21" as="geometry" />
        </mxCell>
        <mxCell id="DPusGmvPXFOhekrq0CR0-235" value="" style="rounded=0;whiteSpace=wrap;html=1;" parent="1" vertex="1">
          <mxGeometry x="112" y="703" width="936" height="21" as="geometry" />
        </mxCell>
        <mxCell id="DPusGmvPXFOhekrq0CR0-236" value="" style="rounded=0;whiteSpace=wrap;html=1;fillColor=#0050ef;fontColor=#ffffff;strokeColor=#001DBC;" parent="1" vertex="1">
          <mxGeometry x="112" y="-11" width="330" height="20" as="geometry" />
        </mxCell>
        <mxCell id="DPusGmvPXFOhekrq0CR0-237" value="" style="rounded=0;whiteSpace=wrap;html=1;fillColor=#bac8d3;strokeColor=#23445d;" parent="1" vertex="1">
          <mxGeometry x="112" y="10" width="47" height="20" as="geometry" />
        </mxCell>
        <mxCell id="DPusGmvPXFOhekrq0CR0-238" value="" style="rounded=0;whiteSpace=wrap;html=1;fillColor=#bac8d3;strokeColor=#23445d;" parent="1" vertex="1">
          <mxGeometry x="448" y="199.5" width="54" height="20" as="geometry" />
        </mxCell>
        <mxCell id="DPusGmvPXFOhekrq0CR0-239" value="" style="rounded=0;whiteSpace=wrap;html=1;fillColor=#bac8d3;strokeColor=#23445d;" parent="1" vertex="1">
          <mxGeometry x="159" y="52" width="86" height="20" as="geometry" />
        </mxCell>
        <mxCell id="DPusGmvPXFOhekrq0CR0-240" value="" style="rounded=0;whiteSpace=wrap;html=1;fillColor=#bac8d3;strokeColor=#23445d;" parent="1" vertex="1">
          <mxGeometry x="159" y="73" width="47" height="20" as="geometry" />
        </mxCell>
        <mxCell id="DPusGmvPXFOhekrq0CR0-241" value="" style="rounded=0;whiteSpace=wrap;html=1;fillColor=#bac8d3;strokeColor=#23445d;" parent="1" vertex="1">
          <mxGeometry x="245" y="94" width="136" height="20" as="geometry" />
        </mxCell>
        <mxCell id="DPusGmvPXFOhekrq0CR0-243" value="" style="rounded=0;whiteSpace=wrap;html=1;fillColor=#bac8d3;strokeColor=#23445d;" parent="1" vertex="1">
          <mxGeometry x="382" y="115.5" width="60" height="20" as="geometry" />
        </mxCell>
        <mxCell id="DPusGmvPXFOhekrq0CR0-244" value="" style="rhombus;whiteSpace=wrap;html=1;fillColor=#ffff88;strokeColor=#36393d;" parent="1" vertex="1">
          <mxGeometry x="424.5" y="136" width="20" height="21" as="geometry" />
        </mxCell>
        <mxCell id="DPusGmvPXFOhekrq0CR0-245" value="" style="rounded=0;whiteSpace=wrap;html=1;fillColor=#0050ef;fontColor=#ffffff;strokeColor=#001DBC;" parent="1" vertex="1">
          <mxGeometry x="448" y="178.5" width="190" height="20" as="geometry" />
        </mxCell>
        <mxCell id="DPusGmvPXFOhekrq0CR0-246" value="" style="rounded=0;whiteSpace=wrap;html=1;fillColor=#bac8d3;strokeColor=#23445d;" parent="1" vertex="1">
          <mxGeometry x="159" y="31" width="65" height="20" as="geometry" />
        </mxCell>
        <mxCell id="DPusGmvPXFOhekrq0CR0-248" value="" style="rounded=0;whiteSpace=wrap;html=1;fillColor=#bac8d3;strokeColor=#23445d;" parent="1" vertex="1">
          <mxGeometry x="556" y="241.5" width="38" height="20" as="geometry" />
        </mxCell>
        <mxCell id="DPusGmvPXFOhekrq0CR0-251" value="" style="rhombus;whiteSpace=wrap;html=1;fillColor=#ffff88;strokeColor=#36393d;" parent="1" vertex="1">
          <mxGeometry x="612" y="283" width="20" height="21" as="geometry" />
        </mxCell>
        <mxCell id="DPusGmvPXFOhekrq0CR0-252" value="" style="rounded=0;whiteSpace=wrap;html=1;fillColor=#0050ef;fontColor=#ffffff;strokeColor=#001DBC;" parent="1" vertex="1">
          <mxGeometry x="656" y="325.5" width="252" height="20" as="geometry" />
        </mxCell>
        <mxCell id="DPusGmvPXFOhekrq0CR0-254" value="" style="rounded=0;whiteSpace=wrap;html=1;fillColor=#0050ef;strokeColor=#001DBC;fontColor=#ffffff;" parent="1" vertex="1">
          <mxGeometry x="908" y="451.5" width="104" height="20" as="geometry" />
        </mxCell>
        <mxCell id="DPusGmvPXFOhekrq0CR0-255" value="" style="rounded=0;whiteSpace=wrap;html=1;fillColor=#bac8d3;strokeColor=#23445d;" parent="1" vertex="1">
          <mxGeometry x="721" y="367" width="122" height="20" as="geometry" />
        </mxCell>
        <mxCell id="DPusGmvPXFOhekrq0CR0-256" value="" style="rounded=0;whiteSpace=wrap;html=1;fillColor=#bac8d3;strokeColor=#23445d;" parent="1" vertex="1">
          <mxGeometry x="843" y="388.5" width="49" height="20" as="geometry" />
        </mxCell>
        <mxCell id="DPusGmvPXFOhekrq0CR0-257" value="" style="rhombus;whiteSpace=wrap;html=1;fillColor=#ffff88;strokeColor=#36393d;" parent="1" vertex="1">
          <mxGeometry x="872" y="409" width="20" height="21" as="geometry" />
        </mxCell>
        <mxCell id="DPusGmvPXFOhekrq0CR0-258" value="" style="rounded=0;whiteSpace=wrap;html=1;fillColor=#bac8d3;strokeColor=#23445d;" parent="1" vertex="1">
          <mxGeometry x="656" y="346.5" width="65" height="20" as="geometry" />
        </mxCell>
        <mxCell id="DPusGmvPXFOhekrq0CR0-259" value="" style="rounded=0;whiteSpace=wrap;html=1;fillColor=#bac8d3;strokeColor=#23445d;" parent="1" vertex="1">
          <mxGeometry x="908" y="472.5" width="16" height="20" as="geometry" />
        </mxCell>
        <mxCell id="DPusGmvPXFOhekrq0CR0-260" value="" style="rounded=0;whiteSpace=wrap;html=1;fillColor=#bac8d3;strokeColor=#23445d;" parent="1" vertex="1">
          <mxGeometry x="924" y="493" width="16" height="20" as="geometry" />
        </mxCell>
        <mxCell id="DPusGmvPXFOhekrq0CR0-261" value="" style="rounded=0;whiteSpace=wrap;html=1;fillColor=#bac8d3;strokeColor=#23445d;" parent="1" vertex="1">
          <mxGeometry x="924" y="514" width="16" height="20" as="geometry" />
        </mxCell>
        <mxCell id="DPusGmvPXFOhekrq0CR0-262" value="" style="rounded=0;whiteSpace=wrap;html=1;fillColor=#bac8d3;strokeColor=#23445d;" parent="1" vertex="1">
          <mxGeometry x="924" y="535" width="16" height="20" as="geometry" />
        </mxCell>
        <mxCell id="DPusGmvPXFOhekrq0CR0-263" value="" style="rounded=0;whiteSpace=wrap;html=1;fillColor=#bac8d3;strokeColor=#23445d;" parent="1" vertex="1">
          <mxGeometry x="940" y="556" width="16" height="20" as="geometry" />
        </mxCell>
        <mxCell id="DPusGmvPXFOhekrq0CR0-264" value="" style="rounded=0;whiteSpace=wrap;html=1;fillColor=#bac8d3;strokeColor=#23445d;" parent="1" vertex="1">
          <mxGeometry x="956" y="577.5" width="16" height="20" as="geometry" />
        </mxCell>
        <mxCell id="DPusGmvPXFOhekrq0CR0-265" value="" style="rounded=0;whiteSpace=wrap;html=1;fillColor=#bac8d3;strokeColor=#23445d;" parent="1" vertex="1">
          <mxGeometry x="972" y="598.5" width="16" height="20" as="geometry" />
        </mxCell>
        <mxCell id="DPusGmvPXFOhekrq0CR0-267" value="" style="rounded=0;whiteSpace=wrap;html=1;fillColor=#bac8d3;strokeColor=#23445d;" parent="1" vertex="1">
          <mxGeometry x="988" y="619.5" width="16" height="20" as="geometry" />
        </mxCell>
        <mxCell id="DPusGmvPXFOhekrq0CR0-268" value="" style="rounded=0;whiteSpace=wrap;html=1;fillColor=#bac8d3;strokeColor=#23445d;" parent="1" vertex="1">
          <mxGeometry x="988" y="640" width="16" height="20" as="geometry" />
        </mxCell>
        <mxCell id="DPusGmvPXFOhekrq0CR0-269" value="" style="rounded=0;whiteSpace=wrap;html=1;fillColor=#bac8d3;strokeColor=#23445d;" parent="1" vertex="1">
          <mxGeometry x="1004" y="661" width="16" height="20" as="geometry" />
        </mxCell>
        <mxCell id="DPusGmvPXFOhekrq0CR0-270" value="" style="rounded=0;whiteSpace=wrap;html=1;fillColor=#bac8d3;strokeColor=#23445d;" parent="1" vertex="1">
          <mxGeometry x="1004" y="683" width="16" height="20" as="geometry" />
        </mxCell>
        <mxCell id="DPusGmvPXFOhekrq0CR0-271" value="" style="rhombus;whiteSpace=wrap;html=1;fillColor=#ffff88;strokeColor=#36393d;" parent="1" vertex="1">
          <mxGeometry x="1002" y="703" width="20" height="21" as="geometry" />
        </mxCell>
        <mxCell id="VE5vyh6DQO0XT344xdCm-3" value="" style="rounded=0;whiteSpace=wrap;html=1;fillColor=#bac8d3;strokeColor=#23445d;" vertex="1" parent="1">
          <mxGeometry x="502" y="220" width="54" height="20" as="geometry" />
        </mxCell>
        <mxCell id="VE5vyh6DQO0XT344xdCm-4" value="" style="rounded=0;whiteSpace=wrap;html=1;fillColor=#bac8d3;strokeColor=#23445d;" vertex="1" parent="1">
          <mxGeometry x="594" y="262.5" width="38" height="20" as="geometry" />
        </mxCell>
      </root>
    </mxGraphModel>
  </diagram>
</mxfile>
